<svg width="3704" height="2587" viewBox="0 0 3704 2587" fill="none" xmlns="http://www.w3.org/2000/svg">
<g clip-path="url(#clip0_33_24)">
<circle opacity="0.66" cx="1809" cy="1698" r="1486" fill="url(#paint0_linear_33_24)"/>
<circle opacity="0.66" cx="1809" cy="1698" r="1227" fill="url(#paint1_linear_33_24)"/>
<path d="M0 2579.81C0 2583.15 2.68256 2585.84 6.02311 2585.84H3697.28C3700.62 2585.84 3703.3 2583.15 3703.3 2579.81C3703.3 2576.47 3700.62 2573.79 3697.28 2573.79H6.02311C2.68256 2573.79 0 2576.47 0 2579.81Z" fill="#3F3D58"/>
<path d="M2230.12 400.461L2359.74 443.078V256.463H2242.11L2230.12 400.461Z" fill="#F8A8AB"/>
<path d="M2343.7 308.089C2415.03 308.089 2472.86 250.259 2472.86 178.921C2472.86 107.584 2415.03 49.7537 2343.7 49.7537C2272.36 49.7537 2214.53 107.584 2214.53 178.921C2214.53 250.259 2272.36 308.089 2343.7 308.089Z" fill="#F8A8AB"/>
<path d="M2310.8 189.045L2328.61 210.657L2360.8 154.273C2360.8 154.273 2401.9 156.399 2401.9 125.878C2401.9 95.3577 2439.61 94.4973 2439.61 94.4973C2439.61 94.4973 2493.01 1.26565 2382.42 25.8136C2382.42 25.8136 2305.69 -26.7241 2267.57 18.1708C2267.57 18.1708 2150.6 77.0859 2184.06 179.631L2239.68 285.364L2252.29 261.423C2252.29 261.423 2244.64 160.954 2310.8 188.944V189.045Z" fill="#2F2E43"/>
<path d="M2297.23 2337.27H2191.25V2487.64H2297.23V2337.27Z" fill="#F8A8AB"/>
<path d="M2285.49 2573.79C2267.37 2575.41 2176.67 2582.6 2172.11 2561.79C2167.96 2542.71 2174.09 2522.77 2174.95 2520.04C2183.65 2433.28 2186.89 2432.32 2188.87 2431.77C2191.96 2430.86 2200.96 2435.16 2215.59 2444.57L2216.5 2445.18L2216.71 2446.24C2216.96 2447.61 2223.44 2479.44 2254.16 2474.54C2275.22 2471.19 2282.05 2466.54 2284.23 2464.26C2282.45 2463.45 2280.23 2462.03 2278.66 2459.6C2276.38 2456.06 2275.98 2451.51 2277.49 2446.04C2281.44 2431.61 2293.29 2410.31 2293.79 2409.45L2295.16 2407.02L2415.62 2488.3L2490.02 2509.56C2495.64 2511.18 2500.15 2515.18 2502.42 2520.54C2505.56 2528.03 2503.64 2536.74 2497.56 2542.21C2484.05 2554.35 2457.23 2575.16 2429.03 2577.74C2421.54 2578.45 2411.62 2578.7 2400.49 2578.7C2353.97 2578.7 2286.05 2573.89 2285.54 2573.79H2285.49Z" fill="#2F2E43"/>
<path d="M2432.58 1040.83L2154.55 1026.61C2154.55 1026.61 2111.93 1188.17 2165.79 1356.51L2172.27 2370.27H2329.37L2477.47 1324.53L2432.58 1040.83Z" fill="#2F2E43"/>
<path d="M2385.71 364.575L2233.1 283.592C2233.1 283.592 2068.66 523.909 2091.38 654.089C2114.16 784.269 2154.55 1026.61 2154.55 1026.61L2491.19 1040.83L2432.42 563.591L2385.71 364.575Z" fill="#E2E3E4"/>
<path d="M2372.65 2337.27H2266.66V2487.64H2372.65V2337.27Z" fill="#F8A8AB"/>
<path d="M2360.9 2573.79C2342.79 2575.41 2252.08 2582.6 2247.53 2561.79C2243.38 2542.71 2249.5 2522.77 2250.36 2520.04C2259.07 2433.28 2262.31 2432.32 2264.28 2431.77C2267.37 2430.86 2276.38 2435.16 2291.01 2444.57L2291.92 2445.18L2292.12 2446.24C2292.37 2447.61 2298.85 2479.44 2329.57 2474.54C2350.63 2471.19 2357.46 2466.54 2359.64 2464.26C2357.87 2463.45 2355.64 2462.03 2354.07 2459.6C2351.79 2456.06 2351.39 2451.51 2352.91 2446.04C2356.86 2431.61 2368.7 2410.31 2369.21 2409.45L2370.57 2407.02L2491.03 2488.3L2565.44 2509.56C2571.06 2511.18 2575.56 2515.18 2577.84 2520.54C2580.98 2528.03 2579.05 2536.74 2572.98 2542.21C2559.46 2554.35 2532.64 2575.16 2504.45 2577.74C2496.96 2578.45 2487.04 2578.7 2475.9 2578.7C2429.39 2578.7 2361.46 2573.89 2360.96 2573.79H2360.9Z" fill="#2F2E43"/>
<path d="M2491.19 1040.83L2154.55 1026.61C2154.55 1026.61 2111.93 1188.17 2165.79 1356.51L2230.88 2370.27H2387.98L2536.08 1324.53L2491.19 1040.83Z" fill="#2F2E43"/>
<path d="M2456.06 1702.97C2432.53 1702.97 2406.86 1697.2 2381.51 1691.53C2362.73 1687.33 2346.18 1686.27 2332.92 1685.46C2312.77 1684.19 2296.83 1683.18 2287.97 1671.39C2279.21 1659.75 2279.21 1639.96 2287.97 1600.93C2299.61 1549.1 2325.53 1466.3 2357.21 1398.17C2398.16 1310.3 2437.49 1269.86 2474.18 1278.11C2523.33 1289.15 2542.91 1371.19 2550.25 1419.07C2560.48 1485.94 2559.57 1565.4 2548.03 1616.82C2532.74 1684.9 2497.67 1702.92 2456.01 1702.92H2456.06V1702.97ZM2465.02 1292.34C2438.04 1292.34 2404.94 1331.71 2371.03 1404.6C2339.8 1471.66 2314.29 1553.2 2302.8 1604.27C2295.46 1637.07 2294.65 1654.94 2300.12 1662.28C2304.77 1668.45 2316.97 1669.26 2333.83 1670.27C2347.64 1671.13 2364.85 1672.2 2384.8 1676.7C2464.06 1694.47 2513.61 1700.95 2533.2 1613.53C2554.2 1519.9 2538.21 1308.08 2470.84 1292.94C2468.92 1292.49 2466.94 1292.29 2464.97 1292.29H2465.02V1292.34Z" fill="#DFDFE0"/>
<path d="M2776.6 2332.36L2021.69 2337.32L1904.42 2283.36L1972.74 1586.35L2041.48 1589.85L2748.71 1625.83L2776.6 2332.36Z" fill="primaryColor"/>
<path opacity="0.2" d="M2021.69 2337.32L1904.42 2283.36L1972.74 1586.35L2041.48 1589.85L2021.69 2337.32Z" fill="#272223"/>
<path d="M2467.45 1574.41C2453.43 1574.41 2438.09 1570.97 2423.01 1567.58C2411.82 1565.05 2401.95 1564.44 2394.01 1563.93C2382.01 1563.17 2372.5 1562.57 2367.23 1555.53C2362.02 1548.6 2362.02 1536.8 2367.23 1513.52C2374.17 1482.6 2389.6 1433.25 2408.53 1392.65C2432.93 1340.27 2456.41 1316.18 2478.28 1321.08C2507.59 1327.66 2519.28 1376.56 2523.63 1405.16C2529.7 1445.04 2529.2 1492.41 2522.31 1523.04C2513.2 1563.63 2492.3 1574.36 2467.45 1574.36V1574.41ZM2472.81 1329.59C2456.72 1329.59 2436.98 1353.07 2416.78 1396.55C2398.16 1436.54 2382.92 1485.13 2376.14 1515.6C2371.74 1535.13 2371.28 1545.81 2374.57 1550.17C2377.35 1553.86 2384.59 1554.32 2394.67 1554.92C2402.92 1555.43 2413.14 1556.09 2425.03 1558.77C2472.26 1569.35 2501.82 1573.19 2513.51 1521.11C2526.01 1465.28 2516.49 1339 2476.36 1329.99C2475.19 1329.74 2474.03 1329.59 2472.86 1329.59H2472.81Z" fill="#DFDFE0"/>
<path d="M2658.52 1949.72L2208.45 1952.65L2138.51 1920.51L2179.25 1504.92L2220.25 1506.99L2641.92 1528.45L2658.52 1949.72Z" fill="#E2E3E4"/>
<path opacity="0.2" d="M2208.45 1952.65L2138.51 1920.51L2179.25 1504.92L2220.25 1506.99L2208.45 1952.65Z" fill="#272223"/>
<path d="M2493.77 1293.91C2501.31 1330.95 2487.49 1364.82 2463 1369.52C2438.5 1374.23 2412.53 1347.96 2405.04 1310.91C2401.85 1296.13 2402.36 1280.85 2406.51 1266.27L2376.7 1108.81L2453.73 1096.61L2474.94 1253.11C2484.51 1265.05 2490.93 1279.02 2493.77 1293.91Z" fill="#F8A8AB"/>
<path d="M2191.6 361.639C2191.6 361.639 2304.27 347.366 2317.73 381.025C2331.19 414.683 2489.42 1215.86 2489.42 1215.86H2385.05L2191.6 361.639Z" fill="#E2E3E4"/>
<path d="M1408.8 533.121L1295.63 570.322V407.445H1398.32L1408.8 533.121Z" fill="#F8A8AB"/>
<path d="M1309.65 452.543C1371.93 452.543 1422.41 402.054 1422.41 339.774C1422.41 277.493 1371.93 227.005 1309.65 227.005C1247.37 227.005 1196.88 277.493 1196.88 339.774C1196.88 402.054 1247.37 452.543 1309.65 452.543Z" fill="#F8A8AB"/>
<path d="M1340.62 328.589C1321.74 328.032 1309.34 308.95 1302 291.539C1294.66 274.127 1287.12 254.135 1269.61 246.948C1255.29 241.076 1230.03 280.809 1218.74 270.23C1206.95 259.196 1218.44 202.559 1230.94 192.385C1243.44 182.212 1260.55 180.238 1276.65 179.479C1315.92 177.657 1355.45 180.845 1393.97 188.893C1417.81 193.853 1442.31 201.344 1459.52 218.553C1481.28 240.418 1486.85 273.368 1488.42 304.192C1490.04 335.725 1488.21 368.726 1472.88 396.311C1457.54 423.895 1425.45 444.242 1394.68 437.207C1391.59 420.504 1394.73 403.346 1395.94 386.339C1397.11 369.384 1395.89 351.061 1385.52 337.547C1375.14 324.033 1353.02 318.668 1340.98 330.664" fill="#2F2E43"/>
<path d="M1479.36 367.662C1490.64 359.412 1504.16 352.478 1518.03 354.199C1533.01 356.021 1545.71 368.371 1549.56 382.998C1553.41 397.626 1549.1 413.721 1539.79 425.666C1530.53 437.611 1516.71 445.507 1502.13 449.455C1493.68 451.733 1484.42 452.694 1476.37 449.253C1464.53 444.141 1458.1 429.007 1462.75 416.961" fill="#2F2E43"/>
<path d="M1371.45 2345.62H1265.46V2496H1371.45V2345.62Z" fill="#F8A8AB"/>
<path d="M1162.21 2587C1151.07 2587 1141.15 2586.75 1133.66 2586.04C1105.52 2583.46 1078.64 2562.65 1065.13 2550.51C1059.05 2545.04 1057.13 2536.33 1060.27 2528.84C1062.55 2523.48 1067.05 2519.43 1072.67 2517.86L1147.07 2496.6L1267.53 2415.32L1268.9 2417.75C1269.41 2418.66 1281.25 2439.97 1285.2 2454.34C1286.72 2459.81 1286.31 2464.36 1284.03 2467.9C1282.47 2470.33 1280.24 2471.75 1278.47 2472.56C1280.64 2474.84 1287.48 2479.49 1308.53 2482.84C1339.26 2487.69 1345.73 2455.86 1345.99 2454.54L1346.19 2453.48L1347.1 2452.87C1361.73 2443.46 1370.74 2439.16 1373.82 2440.07C1375.75 2440.62 1378.99 2441.64 1387.74 2528.34C1388.6 2531.07 1394.73 2551.01 1390.58 2570.09C1386.07 2590.85 1295.37 2583.71 1277.2 2582.09C1276.7 2582.14 1208.77 2587 1162.26 2587H1162.21Z" fill="#2F2E43"/>
<path d="M1673.24 2227.38L1583.31 2283.46L1662.88 2411.06L1752.81 2354.97L1673.24 2227.38Z" fill="#F8A8AB"/>
<path d="M1553.76 2566.4C1541.31 2566.4 1529.87 2564.88 1521.72 2563.46C1513.72 2562.05 1507.45 2555.67 1506.13 2547.67C1505.22 2541.9 1506.89 2536.08 1510.84 2531.78L1562.72 2474.38L1621.94 2341.67L1624.37 2342.99C1625.28 2343.49 1646.59 2355.29 1657.57 2365.41C1661.77 2369.26 1663.84 2373.36 1663.74 2377.56C1663.69 2380.49 1662.58 2382.82 1661.47 2384.49C1664.5 2385.3 1672.75 2385.61 1692.39 2377.3C1721.04 2365.21 1709.7 2334.74 1709.2 2333.47L1708.79 2332.46L1709.25 2331.5C1716.69 2315.76 1722 2307.36 1725.14 2306.5C1727.11 2305.94 1730.35 2305.08 1783.65 2374.07C1785.83 2375.89 1801.57 2389.6 1808.15 2407.98C1815.28 2427.97 1734.55 2469.93 1718.31 2478.13C1717.8 2478.53 1633.32 2539.93 1598.6 2557.39C1584.84 2564.32 1568.54 2566.45 1553.71 2566.45L1553.76 2566.4Z" fill="#2F2E43"/>
<path d="M1449.49 1088.11H1152.74L1125.81 1364.16L1243.64 2384.14H1395.13L1334.55 1795.04L1580.28 2326.89L1714.91 2232.65L1523.04 1736.12C1523.04 1736.12 1591.57 1303.57 1537.71 1195.81C1483.86 1088.06 1449.49 1088.11 1449.49 1088.11Z" fill="#2F2E43"/>
<path d="M1597.08 1104.91H1125.81L1267.18 495.616H1472.52L1597.08 1104.91Z" fill="#CBC5FF"/>
<path d="M1008.74 483.62C1001.2 446.57 1015.02 412.709 1039.52 408.002C1064.01 403.295 1089.98 429.564 1097.47 466.614C1100.66 481.393 1100.15 496.679 1096 511.255L1125.81 668.717L1048.78 680.915L1027.57 524.415C1018.01 512.47 1011.58 498.501 1008.74 483.62Z" fill="#F8A8AB"/>
<path d="M1467.51 495.616H1286.41L1164.33 739.779L1118.27 556.809L1017.09 567.539C1017.09 567.539 1041.04 925.028 1145.66 912.931C1250.28 900.834 1494.29 578.775 1467.46 495.565H1467.51V495.616Z" fill="#CBC5FF"/>
<path d="M1638.54 1653.72C1624.52 1653.72 1609.18 1650.28 1594.1 1646.89C1582.91 1644.36 1573.04 1643.75 1565.1 1643.24C1553.1 1642.49 1543.58 1641.88 1538.32 1634.84C1533.11 1627.91 1533.11 1616.12 1538.32 1592.83C1545.26 1561.91 1560.69 1512.56 1579.62 1471.97C1604.02 1419.58 1627.5 1395.49 1649.37 1400.4C1678.67 1406.98 1690.37 1455.87 1694.72 1484.47C1700.79 1524.35 1700.29 1571.73 1693.4 1602.35C1684.29 1642.94 1663.39 1653.67 1638.54 1653.67V1653.72ZM1643.9 1408.9C1627.81 1408.9 1608.07 1432.38 1587.87 1475.86C1569.25 1515.85 1554.01 1564.44 1547.23 1594.91C1542.83 1614.44 1542.37 1625.12 1545.66 1629.48C1548.44 1633.17 1555.68 1633.63 1565.75 1634.24C1574 1634.74 1584.23 1635.4 1596.12 1638.08C1643.35 1648.66 1672.9 1652.51 1684.6 1600.42C1697.1 1544.6 1687.58 1418.31 1647.45 1409.3C1646.28 1409.05 1645.12 1408.9 1643.95 1408.9H1643.9Z" fill="#DFDFE0"/>
<path d="M1829.66 2028.98L1379.6 2031.91L1309.65 1999.77L1350.39 1584.18L1391.39 1586.25L1813.06 1607.71L1829.66 2028.98Z" fill="#E2E3E4"/>
<path opacity="0.2" d="M1379.6 2031.91L1309.65 1999.77L1350.39 1584.18L1391.39 1586.25L1379.6 2031.91Z" fill="#272223"/>
<path d="M1669.72 1424.14C1677.26 1461.19 1663.44 1495.05 1638.94 1499.75C1614.45 1504.46 1588.48 1478.19 1580.99 1441.14C1577.8 1426.36 1578.31 1411.08 1582.46 1396.5L1552.65 1239.04L1629.68 1226.84L1650.89 1383.34C1660.45 1395.29 1666.88 1409.25 1669.72 1424.14Z" fill="#F8A8AB"/>
<path d="M1364.26 495.615C1364.26 495.615 1467.16 491.262 1472.52 495.615C1500.61 518.544 1665.36 1346.14 1665.36 1346.14H1561L1364.26 495.615Z" fill="#CBC5FF"/>
</g>
<defs>
<linearGradient id="paint0_linear_33_24" x1="1809" y1="212" x2="1809" y2="3521" gradientUnits="userSpaceOnUse">
<stop offset="0.28142" stop-color="#CBC5FF" stop-opacity="0.5"/>
<stop offset="1" stop-color="#02CCFF"/>
</linearGradient>
<linearGradient id="paint1_linear_33_24" x1="1809" y1="471" x2="1809" y2="3203.26" gradientUnits="userSpaceOnUse">
<stop offset="0.28142" stop-color="#CBC5FF" stop-opacity="0.5"/>
<stop offset="1" stop-color="#02CCFF"/>
</linearGradient>
<clipPath id="clip0_33_24">
<rect width="3703.3" height="2587" fill="white"/>
</clipPath>
</defs>
</svg>
